    <svg xmlns="http://www.w3.org/2000/svg" width="100" height="100" viewBox="0 0 100 100">
  <!-- Cosmic-themed favicon for Loreum -->
  <defs>
    <linearGradient id="bgGradient" x1="0%" y1="0%" x2="100%" y2="100%">
      <stop offset="0%" stop-color="#0F172A" />
      <stop offset="100%" stop-color="#1E293B" />
    </linearGradient>

    <linearGradient id="flameGradient" x1="0%" y1="0%" x2="100%" y2="100%">
      <stop offset="0%" stop-color="#3B82F6" />
      <stop offset="50%" stop-color="#06B6D4" />
      <stop offset="100%" stop-color="#F59E0B" />
    </linearGradient>

    <filter id="glow" x="-20%" y="-20%" width="140%" height="140%">
      <feGaussianBlur stdDeviation="2" result="blur" />
      <feComposite in="SourceGraphic" in2="blur" operator="over" />
    </filter>
  </defs>

  <!-- Background -->
  <circle cx="50" cy="50" r="48" fill="url(#bgGradient)" stroke="#334155" stroke-width="1" />

  <!-- Cosmic flame pot -->
  <g filter="url(#glow)">
    <circle cx="50" cy="50" r="30" fill="url(#flameGradient)" opacity="0.7" />
    <circle cx="50" cy="50" r="22" fill="#1E293B" opacity="0.7" />
  </g>

  <!-- Letter "L" for Loreum -->
  <path d="M40,30 L40,65 L60,65"
        fill="none"
        stroke="#E2E8F0"
        stroke-width="5"
        stroke-linecap="round"
        stroke-linejoin="round"
        filter="url(#glow)" />

  <!-- Decorative glyphs -->
  <circle cx="35" cy="25" r="2" fill="#E2E8F0" opacity="0.8" />
  <circle cx="65" cy="25" r="2" fill="#E2E8F0" opacity="0.8" />
  <circle cx="65" cy="75" r="2" fill="#E2E8F0" opacity="0.8" />
  <circle cx="35" cy="75" r="2" fill="#E2E8F0" opacity="0.8" />

  <!-- Small stars -->
  <g fill="#F8FAFC" opacity="0.9">
    <circle cx="25" cy="50" r="1" />
    <circle cx="75" cy="50" r="1" />
    <circle cx="50" cy="25" r="1" />
    <circle cx="50" cy="75" r="1" />
    <circle cx="30" cy="40" r="0.8" />
    <circle cx="70" cy="40" r="0.8" />
    <circle cx="30" cy="60" r="0.8" />
    <circle cx="70" cy="60" r="0.8" />
  </g>
</svg>
