<svg xmlns="http://www.w3.org/2000/svg" width="400" height="400" viewBox="0 0 400 400">
  <!-- Cosmic Circuit Pattern for Loreum -->
  <defs>
    <linearGradient id="circuitGradient" x1="0%" y1="0%" x2="100%" y2="100%">
      <stop offset="0%" stop-color="#8B5CF6" stop-opacity="0.8"/>
      <stop offset="50%" stop-color="#EC4899" stop-opacity="0.5"/>
      <stop offset="100%" stop-color="#3B82F6" stop-opacity="0.8"/>
    </linearGradient>
    
    <filter id="glow" x="-20%" y="-20%" width="140%" height="140%">
      <feGaussianBlur stdDeviation="1.5" result="blur" />
      <feComposite in="SourceGraphic" in2="blur" operator="over" />
    </filter>
  </defs>
  
  <!-- Circuit Grid Background -->
  <g stroke="#E2E8F0" stroke-width="0.5" stroke-opacity="0.08">
    <!-- Horizontal lines -->
    <line x1="0" y1="50" x2="400" y2="50" />
    <line x1="0" y1="100" x2="400" y2="100" />
    <line x1="0" y1="150" x2="400" y2="150" />
    <line x1="0" y1="200" x2="400" y2="200" />
    <line x1="0" y1="250" x2="400" y2="250" />
    <line x1="0" y1="300" x2="400" y2="300" />
    <line x1="0" y1="350" x2="400" y2="350" />
    
    <!-- Vertical lines -->
    <line x1="50" y1="0" x2="50" y2="400" />
    <line x1="100" y1="0" x2="100" y2="400" />
    <line x1="150" y1="0" x2="150" y2="400" />
    <line x1="200" y1="0" x2="200" y2="400" />
    <line x1="250" y1="0" x2="250" y2="400" />
    <line x1="300" y1="0" x2="300" y2="400" />
    <line x1="350" y1="0" x2="350" y2="400" />
  </g>
  
  <!-- Circuit Elements -->
  <g stroke="url(#circuitGradient)" stroke-width="1.5" fill="none" filter="url(#glow)">
    <!-- Main circuit paths -->
    <path d="M0,100 L50,100 L50,200 L150,200 L150,300 L250,300 L250,150 L350,150 L350,250 L400,250" />
    <path d="M0,300 L100,300 L100,50 L200,50 L200,350 L300,350 L300,100 L400,100" />
    
    <!-- Secondary circuit paths -->
    <path d="M150,0 L150,100 L250,100 L250,50 L350,50 L350,0" stroke-width="1" />
    <path d="M50,400 L50,350 L150,350 L150,400" stroke-width="1" />
    <path d="M350,400 L350,300 L400,300" stroke-width="1" />
    
    <!-- Connection nodes -->
    <circle cx="50" cy="100" r="4" fill="#8B5CF6" stroke="none" />
    <circle cx="50" cy="200" r="4" fill="#8B5CF6" stroke="none" />
    <circle cx="150" cy="200" r="4" fill="#EC4899" stroke="none" />
    <circle cx="150" cy="300" r="4" fill="#EC4899" stroke="none" />
    <circle cx="250" cy="300" r="4" fill="#3B82F6" stroke="none" />
    <circle cx="250" cy="150" r="4" fill="#3B82F6" stroke="none" />
    <circle cx="350" cy="150" r="4" fill="#8B5CF6" stroke="none" />
    <circle cx="350" cy="250" r="4" fill="#8B5CF6" stroke="none" />
    
    <circle cx="100" cy="300" r="4" fill="#EC4899" stroke="none" />
    <circle cx="100" cy="50" r="4" fill="#EC4899" stroke="none" />
    <circle cx="200" cy="50" r="4" fill="#3B82F6" stroke="none" />
    <circle cx="200" cy="350" r="4" fill="#3B82F6" stroke="none" />
    <circle cx="300" cy="350" r="4" fill="#8B5CF6" stroke="none" />
    <circle cx="300" cy="100" r="4" fill="#8B5CF6" stroke="none" />
    
    <circle cx="150" cy="100" r="4" fill="#EC4899" stroke="none" />
    <circle cx="250" cy="100" r="4" fill="#3B82F6" stroke="none" />
    <circle cx="250" cy="50" r="4" fill="#3B82F6" stroke="none" />
    <circle cx="350" cy="50" r="4" fill="#8B5CF6" stroke="none" />
    
    <circle cx="50" cy="350" r="4" fill="#EC4899" stroke="none" />
    <circle cx="150" cy="350" r="4" fill="#3B82F6" stroke="none" />
    
    <circle cx="350" cy="300" r="4" fill="#8B5CF6" stroke="none" />
  </g>
  
  <!-- Small decorative elements -->
  <g fill="#E2E8F0" fill-opacity="0.2">
    <rect x="75" y="75" width="10" height="10" rx="2" />
    <rect x="175" y="175" width="10" height="10" rx="2" />
    <rect x="275" y="275" width="10" height="10" rx="2" />
    <rect x="325" y="125" width="10" height="10" rx="2" />
    <rect x="125" y="325" width="10" height="10" rx="2" />
    <rect x="225" y="25" width="10" height="10" rx="2" />
  </g>
</svg>